<svg width="24" height="24" viewBox="0 0 24 24" fill="none" xmlns="http://www.w3.org/2000/svg">
<path d="M19.1529 3.04199C19.3592 3.04199 19.5499 3.14308 19.6525 3.30701L20.5783 4.78603C20.7241 5.01887 20.6556 5.31477 20.4193 5.47349C20.4193 5.47349 19.584 6.13783 18.9656 6.40843C16.7713 7.36865 14.9938 5.71839 12.9363 5.28448C12.6328 5.22418 12.319 5.19256 11.9978 5.19256C9.3844 5.19256 7.90539 6.90841 7.16778 8.60405C7.08769 8.78817 6.78287 8.94804 6.73645 8.76401C6.25805 6.87711 5.25963 6.05709 3.68815 5.53267C3.36737 5.40286 3.24665 5.04283 3.43272 4.77059L4.33047 3.30491C4.43572 3.15101 4.62013 3.0577 4.8184 3.05766L19.1529 3.04199Z" fill="#E16546"/>
<path d="M14.9811 20.5955C14.878 20.7742 14.6951 20.8888 14.5018 20.8957L12.758 20.958C12.4835 20.9678 12.2615 20.7605 12.2422 20.4765C12.2422 20.4765 12.0845 19.4209 12.1594 18.7501C12.4249 16.3697 14.7429 15.6555 16.1474 14.0906C16.3513 13.8579 16.5356 13.6019 16.6962 13.3238C18.0029 11.0605 17.2565 8.92171 16.1568 7.4351C16.0374 7.27368 16.0514 6.92977 16.2339 6.98158C18.1073 7.51073 19.3166 7.05608 20.5565 5.95735C20.8293 5.74445 21.2015 5.81992 21.3442 6.11718L22.1647 7.62749C22.2453 7.79559 22.2339 8.00195 22.1348 8.17368L14.9811 20.5955Z" fill="#E16546"/>
<path d="M1.8652 8.20593C1.76204 8.02725 1.75424 7.81156 1.84489 7.64072L2.66285 6.09943C2.79161 5.85678 3.08213 5.76816 3.33774 5.89345C3.33774 5.89345 4.33074 6.28469 4.87426 6.68491C6.80296 8.10508 6.26257 10.4696 6.91555 12.4684C7.01506 12.7614 7.14458 13.049 7.30518 13.3271C8.61189 15.5904 10.8374 16.0133 12.6746 15.8043C12.8741 15.7816 13.165 15.9657 13.0288 16.0979C11.6339 17.4556 11.423 18.7303 11.7546 20.3534C11.8025 20.6962 11.5511 20.9807 11.2223 20.9557L9.5041 20.9111C9.31819 20.8969 9.14517 20.7838 9.04601 20.6121L1.8652 8.20593Z" fill="#E16546"/>
</svg>
